<svg xmlns="http://www.w3.org/2000/svg" viewBox="0 0 50 50"><defs><style>.a,.b{fill:#000;}.b{stroke:#000;stroke-miterlimit:10;stroke-width:0.5px;fill-rule:evenodd;}</style></defs><title>atriumWeb ikoner</title><path class="a" d="M25,1A24,24,0,1,1,12.54,45.52l-0.38-.23-0.43.13L1.5,48.5,4.59,38.27l0.13-.43-0.23-.38A24,24,0,0,1,25,1m0-1A25,25,0,0,0,3.63,38L0,50l12-3.63A25,25,0,1,0,25,0h0Z"/><path class="b" d="M33.05,30.4l-5.24-4-3.23,2.44a0.2,0.2,0,0,1-.25,0L21.1,26.44l-5.24,4a0.82,0.82,0,0,0,.23.45h0a0.8,0.8,0,0,0,.57.24H32.25a0.81,0.81,0,0,0,.8-0.69h0ZM27.69,26l-3.23,2.44L21.23,26h0L15.85,22V21a0.81,0.81,0,0,1,.81-0.81H32.25a0.81,0.81,0,0,1,.57.24h0a0.81,0.81,0,0,1,.24.57v1L27.69,26h0Zm0.46,0.16,4.92-3.72V29.9l-4.92-3.72h0Zm-12.3-3.72,4.92,3.72L15.85,29.9V22.47h0Zm0.81-2.73H32.25a1.21,1.21,0,0,1,.86.36h0a1.21,1.21,0,0,1,.36.86v9.32a1.22,1.22,0,0,1-1.22,1.22H16.66a1.22,1.22,0,0,1-.86-0.35h0a1.21,1.21,0,0,1-.36-0.86V21A1.22,1.22,0,0,1,16.66,19.74Z"/></svg>