<svg xmlns="http://www.w3.org/2000/svg" viewBox="0 0 50.03 50.08"><defs><style>.a{fill:#000;}</style></defs><title>atriumWeb ikoner</title><path class="a" d="M25,1h0A24,24,0,0,1,45.52,37.52l-0.23.38,0.13,0.43,3.07,10.25L38.25,45.46l-0.43-.13-0.38.23A24,24,0,0,1,25,49h0A24,24,0,0,1,25,1m0-1a25,25,0,0,0,0,50H25A24.89,24.89,0,0,0,38,46.42l12,3.66L46.37,38A25,25,0,0,0,25.06,0H25Z"/><circle class="a" cx="15.61" cy="25.22" r="2.98"/><circle class="a" cx="25.2" cy="25.22" r="2.98"/><circle class="a" cx="34.79" cy="25.22" r="2.98"/></svg>