<svg xmlns="http://www.w3.org/2000/svg" viewBox="0 0 50 50"><defs><style>.a{fill:#000;}.b{fill:none;stroke:#000;stroke-miterlimit:10;}</style></defs><title>atriumWeb ikoner</title><path class="a" d="M25,1A24,24,0,1,1,12.54,45.52l-0.38-.23-0.43.13L1.5,48.5,4.59,38.27l0.13-.43-0.23-.38A24,24,0,0,1,25,1m0-1A25,25,0,0,0,3.63,38L0,50l12-3.63A25,25,0,1,0,25,0h0Z"/><path class="b" d="M33.41,20.79a6.91,6.91,0,0,1-.54,2.94S25.39,37.62,25,37.62s-7.87-13.88-7.87-13.88a6.91,6.91,0,0,1-.54-2.94A8.41,8.41,0,0,1,25,12.38,8.41,8.41,0,0,1,33.41,20.79ZM27.1,22.73a2.73,2.73,0,1,0-1.93.8A2.63,2.63,0,0,0,27.1,22.73Z"/></svg>