<svg xmlns="http://www.w3.org/2000/svg" viewBox="0 0 40.87 38.45"><defs><style>.a{fill:#fff;fill-rule:evenodd;}</style></defs><title>atriumWeb ikoner</title><path class="a" d="M26.3,21.8H14.55a0.56,0.56,0,0,0-.56.56V38.45h1.13V22.93H25.74V38.45h1.13V22.37A0.56,0.56,0,0,0,26.3,21.8Z"/><path class="a" d="M40.87,18.13a0.57,0.57,0,0,0-.19-0.42L20.7,0.14h0a0.56,0.56,0,0,0-.74,0L0.23,17.65a0.57,0.57,0,0,0-.23.45v3.35A0.57,0.57,0,0,0,.56,22H4.22V38.45H5.35v-17a0.56,0.56,0,0,0-.57-0.56H1.13V18.36l19.2-17L39.74,18.39v2.5H36.11a0.56,0.56,0,0,0-.56.56v17h1.13V22H40.3a0.57,0.57,0,0,0,.56-0.56V18.13h0Z"/></svg>