<svg xmlns="http://www.w3.org/2000/svg" viewBox="0 0 34.12 27.25"><defs><style>.a{fill:#fff;fill-rule:evenodd;}</style></defs><title>atriumWeb ikoner</title><path class="a" d="M17.06,26.34c0.91-.68,2-1.42,3.1-2.21C25.77,20.21,33.3,15,33.3,9.39a8.32,8.32,0,0,0-3.61-7.22A8.17,8.17,0,0,0,26.14.87a8,8,0,0,0-3.73.43,8,8,0,0,0-5,6,0.41,0.41,0,0,1-.8,0,8,8,0,0,0-5-6A8,8,0,0,0,8,.87,8.17,8.17,0,0,0,4.42,2.17,8.32,8.32,0,0,0,.82,9.39C0.82,15,8.34,20.21,14,24.13c1.13,0.79,2.19,1.53,3.1,2.21h0Zm3.57-1.55c-1.23.86-2.38,1.66-3.32,2.38a0.41,0.41,0,0,1-.49,0c-0.94-.72-2.09-1.52-3.32-2.38C7.73,20.77,0,15.37,0,9.39a9.11,9.11,0,0,1,4-7.9A9,9,0,0,1,7.88.06,8.86,8.86,0,0,1,12,.54a8.54,8.54,0,0,1,5.07,5.24A8.54,8.54,0,0,1,22.12.54,8.85,8.85,0,0,1,26.23.06a8.91,8.91,0,0,1,7.88,9.33C34.12,15.37,26.39,20.77,20.63,24.79Z"/></svg>