<svg xmlns="http://www.w3.org/2000/svg" viewBox="0 0 50 50"><defs><style>.a{fill:#fff;}</style></defs><title>atriumWeb ikoner</title><path class="a" d="M25,1A24,24,0,1,1,12.54,45.52l-0.38-.23-0.43.13L1.5,48.5,4.59,38.27l0.13-.43-0.23-.38A24,24,0,0,1,25,1m0-1A25,25,0,0,0,3.63,38L0,50l12-3.63A25,25,0,1,0,25,0h0Z"/><path class="a" d="M30.06,15.12v3.17H28.17a1.76,1.76,0,0,0-1.39.43,2,2,0,0,0-.36,1.3v2.27h3.51l-0.47,3.55h-3v9.1H22.75v-9.1H19.69V22.28h3.06V19.67A4.64,4.64,0,0,1,24,16.21,4.53,4.53,0,0,1,27.32,15,19.83,19.83,0,0,1,30.06,15.12Z"/></svg>