<svg xmlns="http://www.w3.org/2000/svg" viewBox="0 0 50 32.69"><defs><style>.a{fill:#000;}</style></defs><title>atriumWeb ikoner</title><path class="a" d="M38.49,1a9.88,9.88,0,0,1,8.05,3.67A11.72,11.72,0,0,1,49,11.74c0,9.83-9.31,16.67-14.79,19.08,1.25-2,2.77-4.91,3-7.37l0.08-.8-0.77-.25-0.82-.29,0,0H35.6a10.69,10.69,0,0,1,.84-20.86,9.58,9.58,0,0,1,2-.22M11.87,1a9.88,9.88,0,0,1,8.05,3.67,11.72,11.72,0,0,1,2.46,7.06c0,9.83-9.31,16.67-14.79,19.08,1.25-2,2.77-4.91,3-7.37l0.08-.8L9.9,22.4l-0.82-.29,0,0H9A10.69,10.69,0,0,1,9.82,1.22a9.6,9.6,0,0,1,2-.22M38.49,0a10.53,10.53,0,0,0-2.26.24A11.69,11.69,0,0,0,35.35,23l0.87,0.3c-0.38,3.95-4.49,9.34-4.49,9.34,5-.91,18.27-9,18.27-20.95C50,6.89,46.71,0,38.49,0h0ZM11.87,0A10.55,10.55,0,0,0,9.6.24,11.69,11.69,0,0,0,8.72,23l0.87,0.3C9.21,27.3,5.1,32.69,5.1,32.69c5-.91,18.27-9,18.27-20.95C23.37,6.89,20.08,0,11.87,0h0Z"/></svg>