<svg xmlns="http://www.w3.org/2000/svg" viewBox="0 0 334.22 60.17"><defs><style>.a{fill:#fff;}</style></defs><title>atriumWeb Logo</title><path class="a" d="M30.08,0A30.09,30.09,0,0,0,4.37,45.7L0,60.17,14.46,55.8A30.08,30.08,0,1,0,30.08,0Zm8,48.13H37.91l-8-17.24L21.27,48.13H21.15L10.95,18h7.21l4.27,14.68,7.38-14.59L37.06,33,41.5,18h7.72Z"/><path class="a" d="M91.73,29.1a2.54,2.54,0,0,0,.09-0.51c0-.22,0-0.39,0-0.51a2.36,2.36,0,0,0-.48-1.47A2.07,2.07,0,0,0,89.63,26a7.54,7.54,0,0,0-3.18.69,16.05,16.05,0,0,0-2.52,1.41L79.67,20.4a18.64,18.64,0,0,1,5.46-3.27,17.22,17.22,0,0,1,6.36-1.23q6,0,8.64,2.91a11.12,11.12,0,0,1,2.64,7.77,27.91,27.91,0,0,1-.15,2.79q-0.15,1.47-.45,3l-1.92,10.86q-0.12.72-.24,1.59T99.8,46.59c-0.06.58-.11,1.1-0.15,1.56s-0.06.81-.06,1h-9.9q0-.6.09-1.47c0.06-.58.13-1.07,0.21-1.47H89.81A8,8,0,0,1,87.32,49,7.37,7.37,0,0,1,83,50.16a7.79,7.79,0,0,1-2.61-.48,7.17,7.17,0,0,1-2.46-1.5,7.9,7.9,0,0,1-1.83-2.61,9,9,0,0,1-.72-3.75,13.81,13.81,0,0,1,1.08-5.7,10.27,10.27,0,0,1,3.09-4,13.37,13.37,0,0,1,4.86-2.31,24.86,24.86,0,0,1,6.33-.75h1Zm-2,7.32a5.87,5.87,0,0,0-3.06.72,2.26,2.26,0,0,0-1.2,2q0,2,1.74,2a2.77,2.77,0,0,0,2.22-1,5.46,5.46,0,0,0,1.14-2.55l0.24-1.26H89.75Z"/><path class="a" d="M115.91,49.8q-4.68,0-7.11-2.13a7.67,7.67,0,0,1-2.43-6.09q0-.66.06-1.47a13.57,13.57,0,0,1,.18-1.47l2.16-12.06h-4.08l1.74-9.48h4.08l1.26-7.32h11.52L122,17.1h5.22l-1.74,9.48h-5.16l-1.56,8.82a5.77,5.77,0,0,0-.18,1,7.88,7.88,0,0,0-.06.84,2.25,2.25,0,0,0,2.52,2.58,10.68,10.68,0,0,0,1.08-.06,5.73,5.73,0,0,0,1-.18L121.43,49a10.56,10.56,0,0,1-2.49.6A21.31,21.31,0,0,1,115.91,49.8Z"/><path class="a" d="M144.2,17.52a5.72,5.72,0,0,1,4-1.5,8.42,8.42,0,0,1,1.26.09,4.27,4.27,0,0,1,.9.21l-2.7,12.12a5.37,5.37,0,0,0-1.08-.27,10.46,10.46,0,0,0-1.5-.09,4.47,4.47,0,0,0-3.45,1.56,7.66,7.66,0,0,0-1.83,3.84L137,49.2H125l4.32-24.48q0.18-1,.36-2.07t0.36-2.16c0.12-.7.22-1.35,0.3-2s0.14-1.08.18-1.44h11q-0.06.84-.18,2.25t-0.24,2.31h0.18A12.49,12.49,0,0,1,144.2,17.52Z"/><path class="a" d="M159.41,49.2H147.47L153,17.1h12Z"/><path class="a" d="M228,21.18a7.7,7.7,0,0,0-1.26-2.61,6.8,6.8,0,0,0-2.25-1.92A7.09,7.09,0,0,0,221,15.9a8.51,8.51,0,0,0-5.52,1.79,12.62,12.62,0,0,0-3.42,4.18,8.39,8.39,0,0,0-.81-2.21,7.17,7.17,0,0,0-1.47-1.91,7,7,0,0,0-2.16-1.34,7.7,7.7,0,0,0-2.88-.51,8.11,8.11,0,0,0-4.92,1.49A11.53,11.53,0,0,0,196.62,21h-0.18q0.12-.89.24-2c0.08-.71.14-1.35,0.18-1.91H185.77l-3.36,19.14a7.11,7.11,0,0,1-.9,2.49,2,2,0,0,1-1.74.93,1.36,1.36,0,0,1-1.35-.66,3.3,3.3,0,0,1-.33-1.5q0-.3,0-0.63c0-.22.05-0.45,0.09-0.69l3.42-19.08H169.75l-3.36,19.14q-0.3,1.62-.48,3.18a25.5,25.5,0,0,0-.18,2.94,9.84,9.84,0,0,0,.42,2.76,7.84,7.84,0,0,0,1.32,2.61,7,7,0,0,0,2.31,1.92,7.28,7.28,0,0,0,3.45.75,8.08,8.08,0,0,0,4.92-1.5,11.54,11.54,0,0,0,3.24-3.6h0.18c-0.08.6-.16,1.26-0.24,2s-0.14,1.36-.18,1.92h11.09L195.6,30a7.08,7.08,0,0,1,.9-2.5,1.94,1.94,0,0,1,1.74-.93,1.36,1.36,0,0,1,1.35.66,3.34,3.34,0,0,1,.33,1.5c0,0.2,0,.41,0,0.63s-0.05.45-.09,0.69L196.38,49.2h11.88L211.62,30a6.71,6.71,0,0,1,.93-2.5,2,2,0,0,1,1.77-.93,1.36,1.36,0,0,1,1.35.66,3.34,3.34,0,0,1,.33,1.5c0,0.2,0,.41,0,0.63s-0.05.45-.09,0.69L212.46,49.2h11.88l3.36-19.14q0.3-1.62.48-3.18a25.89,25.89,0,0,0,.18-2.94A10.56,10.56,0,0,0,228,21.18Z"/><path class="a" d="M264.82,49.2H252.16V30.36H252L244.66,49.2H232.42L231.22,13h12.54l-0.6,20h0.18L250,13h10.26V33h0.12l6-20h12.84Z"/><path class="a" d="M300.24,42.42a14.18,14.18,0,0,1-2,3,14.8,14.8,0,0,1-6.57,4.32,13.68,13.68,0,0,1-4.29.66,14.4,14.4,0,0,1-5.43-1,10.67,10.67,0,0,1-4-2.76,12,12,0,0,1-2.46-4.35,18,18,0,0,1-.84-5.67,26,26,0,0,1,1.29-8.37,21.24,21.24,0,0,1,3.51-6.57,16.21,16.21,0,0,1,5.16-4.29,13.21,13.21,0,0,1,6.18-1.53,13.43,13.43,0,0,1,5.34,1,9.81,9.81,0,0,1,3.63,2.61,10.15,10.15,0,0,1,2,3.87,17.3,17.3,0,0,1,.63,4.74,34.4,34.4,0,0,1-.24,3.48,32.54,32.54,0,0,1-.78,4.38H285.9a2.64,2.64,0,0,0-.06.45v0.27a3.63,3.63,0,0,0,.69,2.28,2.44,2.44,0,0,0,2.07.9,3,3,0,0,0,2.16-.87,8.74,8.74,0,0,0,1.44-1.77Zm-8-13.32a6.48,6.48,0,0,0,.09-0.66q0-.36,0-0.66a4.36,4.36,0,0,0-.45-2.16,1.57,1.57,0,0,0-1.47-.78,2.63,2.63,0,0,0-2.07,1.2,6.63,6.63,0,0,0-1.23,3.06h5.1Z"/><path class="a" d="M334.22,27.84a35.45,35.45,0,0,1-.87,7.65,29,29,0,0,1-2.58,7.2,16.92,16.92,0,0,1-4.29,5.37,9.22,9.22,0,0,1-6,2.1,6.46,6.46,0,0,1-4.23-1.26,5.84,5.84,0,0,1-2-3h-0.12l-0.54,3.3H302.24L310.1,3.84h11.7L319,19.68h0.24a6.18,6.18,0,0,1,2.34-2.46,7,7,0,0,1,3.84-1.08,8.2,8.2,0,0,1,3.87.87,7.49,7.49,0,0,1,2.73,2.46,11.68,11.68,0,0,1,1.62,3.72A18.92,18.92,0,0,1,334.22,27.84Zm-11.7,2.28a6,6,0,0,0-.54-2.73,1.92,1.92,0,0,0-1.86-1.05,2.37,2.37,0,0,0-1.89,1,8.31,8.31,0,0,0-1.32,2.52,20.8,20.8,0,0,0-1.05,6.18,6.14,6.14,0,0,0,.54,2.79,1.82,1.82,0,0,0,1.74,1,2.45,2.45,0,0,0,1.92-1,8.37,8.37,0,0,0,1.38-2.52,17.81,17.81,0,0,0,.81-3.18A19.46,19.46,0,0,0,322.52,30.12Z"/><path class="a" d="M161,1.92a7,7,0,0,0-6.84,6.29,5.91,5.91,0,0,0,.63,3.27l-1.18,3,3.11-.91a5.86,5.86,0,0,0,3.19.91,7,7,0,0,0,6.84-6.29A5.67,5.67,0,0,0,161,1.92Z"/></svg>