<svg xmlns="http://www.w3.org/2000/svg" viewBox="0 0 50 50"><defs><style>.a{fill:#000;}</style></defs><title>atriumWeb ikoner</title><path class="a" d="M25,1A24,24,0,1,1,12.54,45.52l-0.38-.23-0.43.13L1.5,48.5,4.59,38.27l0.13-.43-0.23-.38A24,24,0,0,1,25,1m0-1A25,25,0,0,0,3.63,38L0,50l12-3.63A25,25,0,1,0,25,0h0Z"/><path class="a" d="M24.17,24.95a1.08,1.08,0,0,0,.33.73,5.66,5.66,0,0,0,.8.7q0.47,0.35.94,0.76a3.54,3.54,0,0,1,.8,1.08,3.24,3.24,0,0,1,.33,1.47,3.53,3.53,0,0,1-.5,1.79,4.42,4.42,0,0,1-2.19,1.86,8,8,0,0,1-3.09.59A7.43,7.43,0,0,1,19,33.51a3.29,3.29,0,0,1-1.78-1.42,2.54,2.54,0,0,1-.38-1.36,2.81,2.81,0,0,1,.46-1.55A3.86,3.86,0,0,1,18.58,28a9.25,9.25,0,0,1,4.18-1,4.63,4.63,0,0,1-.49-0.77,1.71,1.71,0,0,1-.16-0.76,2.3,2.3,0,0,1,.22-0.88l-0.7,0a3.61,3.61,0,0,1-2.59-1A3.35,3.35,0,0,1,18,21.05a3.85,3.85,0,0,1,.37-1.65,4,4,0,0,1,1-1.36,5.18,5.18,0,0,1,1.89-1,7.72,7.72,0,0,1,2.25-.33h4.33l-1.43.91H25.07A4.93,4.93,0,0,1,26.23,19a3.68,3.68,0,0,1,.14,3,3.13,3.13,0,0,1-.61,1q-0.36.37-.72,0.67a4.11,4.11,0,0,0-.62.64A1.11,1.11,0,0,0,24.17,24.95Zm-1.49,8a4.83,4.83,0,0,0,1.16-.13,3.93,3.93,0,0,0,1-.4,2,2,0,0,0,.76-0.76,2.2,2.2,0,0,0,.28-1.13,1.81,1.81,0,0,0-.07-0.51,4.21,4.21,0,0,0-.15-0.44,1.76,1.76,0,0,0-.28-0.43l-0.31-.36a3.46,3.46,0,0,0-.4-0.36l-0.38-.3-0.43-.31-0.38-.27-0.5,0a8.27,8.27,0,0,0-1.09.07,6.59,6.59,0,0,0-1.11.26,4,4,0,0,0-1,.48,2.31,2.31,0,0,0-.71.77,2.14,2.14,0,0,0-.28,1.09,2.28,2.28,0,0,0,.36,1.28,2.51,2.51,0,0,0,.95.86,5.21,5.21,0,0,0,1.23.46A5.85,5.85,0,0,0,22.68,33Zm0-9a2.11,2.11,0,0,0,.81-0.17,2,2,0,0,0,.68-0.45,2.33,2.33,0,0,0,.55-1.65,5.29,5.29,0,0,0-.18-1.3A6.58,6.58,0,0,0,24,19,3.1,3.1,0,0,0,23.14,18a1.93,1.93,0,0,0-2.07-.22,1.83,1.83,0,0,0-.68.54A2.59,2.59,0,0,0,19.91,20a5.3,5.3,0,0,0,.1,1A5.48,5.48,0,0,0,20.34,22a4.5,4.5,0,0,0,.54,1,2.58,2.58,0,0,0,.78.69A1.94,1.94,0,0,0,22.66,24Zm8.41,0h2.21V25H31.07v2.27H30V25h-2.2V23.92H30V21.67h1.09v2.25Z"/></svg>