<svg xmlns="http://www.w3.org/2000/svg" viewBox="0 0 37.23 34.63"><defs><style>.a{fill:#fff;fill-rule:evenodd;}</style></defs><title>atriumWeb ikoner</title><path class="a" d="M20.66,8.23a6.85,6.85,0,0,1,4.8,6.54,0.41,0.41,0,0,1-.41.41H12.17a0.41,0.41,0,0,1-.41-0.41,6.85,6.85,0,0,1,4.79-6.54,4.4,4.4,0,0,1-1-.77,4.37,4.37,0,1,1,6.18,0h0a4.39,4.39,0,0,1-1,.77h0ZM18.2,16.4a0.41,0.41,0,0,1,.83,0v2.78a3.52,3.52,0,0,1,2.08,1h0a3.53,3.53,0,0,1,.42,4.5l2.23,2.25a0.41,0.41,0,1,1-.58.58L21,25.31a3.53,3.53,0,0,1-4.68.06l-2.15,2.15a0.41,0.41,0,1,1-.58-0.58l2.17-2.17a3.53,3.53,0,0,1,2.45-5.58V16.4h0Zm-1.61,8.1h0l0,0,0.07,0.07h0A2.71,2.71,0,1,0,18.61,20h0a2.71,2.71,0,0,0-2,4.52h0ZM6.85,19.45a4.37,4.37,0,0,0-3.09,7.46,4.42,4.42,0,0,0,1,.77A6.85,6.85,0,0,0,0,34.21a0.41,0.41,0,0,0,.41.41H13.29a0.41,0.41,0,0,0,.41-0.41,6.86,6.86,0,0,0-4.8-6.54,4.33,4.33,0,0,0,1-.77h0a4.37,4.37,0,0,0-3.09-7.46h0Zm2.5,1.86a3.54,3.54,0,0,1,0,5h0a3.53,3.53,0,0,1-2.5,1h0a3.54,3.54,0,1,1,2.5-6h0ZM11.11,30a6,6,0,0,1,1.75,3.85h-12a6,6,0,0,1,6-5.61h0A6,6,0,0,1,11.11,30h0Zm19.26-10.5a4.37,4.37,0,0,0-3.09,7.46,4.44,4.44,0,0,0,1,.77,6.85,6.85,0,0,0-4.79,6.54,0.41,0.41,0,0,0,.41.41H36.82a0.41,0.41,0,0,0,.41-0.41,6.86,6.86,0,0,0-4.8-6.54,4.37,4.37,0,0,0,1-.77h0a4.37,4.37,0,0,0-3.09-7.46h0Zm2.51,1.86a3.54,3.54,0,0,1,0,5h0a3.54,3.54,0,0,1-2.5,1h0a3.54,3.54,0,1,1,2.51-6h0ZM34.64,30a6,6,0,0,1,1.75,3.85h-12a6,6,0,0,1,6-5.61h0A6,6,0,0,1,34.64,30h0Zm-16-22h0a3.53,3.53,0,0,0,2.5-1h0a3.55,3.55,0,1,0-2.51,1h0Zm4.26,2.59a6,6,0,0,0-4.26-1.76h0a6,6,0,0,0-6,5.61h12A6,6,0,0,0,22.87,10.5Z"/></svg>