<svg xmlns="http://www.w3.org/2000/svg" viewBox="0 0 42.45 36.65"><defs><style>.a,.b{fill:#fff;}.a{fill-rule:evenodd;}</style></defs><title>atriumWeb ikoner</title><path class="a" d="M0.57,28a0.57,0.57,0,1,1,0-1.14H41.88a0.57,0.57,0,1,1,0,1.14H0.57Zm22-9.15a0.57,0.57,0,0,1,0-1.14H41.88a0.57,0.57,0,1,1,0,1.14H22.61Zm0-9.15a0.57,0.57,0,0,1,0-1.14H41.88a0.57,0.57,0,0,1,0,1.14H22.61Zm0-8.61a0.57,0.57,0,0,1,0-1.14H41.88a0.57,0.57,0,1,1,0,1.14H22.61Zm-22,35.52a0.57,0.57,0,1,1,0-1.14H41.88a0.57,0.57,0,1,1,0,1.14H0.57Z"/><path class="b" d="M5.27,2.3H3.72V0.82h7.11c2.62,0,4.52,1.59,4.52,4.21A3.84,3.84,0,0,1,13.2,8.67v0A4.07,4.07,0,0,1,16,12.85c0,3-2.19,4.68-5,4.68H6.72a1.24,1.24,0,0,1-1.45-1.45V2.3ZM10.8,8.07a2.73,2.73,0,0,0,2.83-2.93A2.67,2.67,0,0,0,10.78,2.3H6.93V8.07H10.8Zm-3.35,8H11a3,3,0,0,0,3.26-3.26A3.11,3.11,0,0,0,11,9.5H6.93v6A0.47,0.47,0,0,0,7.45,16.06Z"/></svg>