<svg xmlns="http://www.w3.org/2000/svg" viewBox="0 0 33.98 26.15"><defs><style>.a{fill:#fff;fill-rule:evenodd;}</style></defs><title>atriumWeb ikoner</title><path class="a" d="M33.58,6.18a0.4,0.4,0,1,1,0,.8H28.47v5.11a0.4,0.4,0,0,1-.8,0V7H22.56a0.4,0.4,0,1,1,0-.8h5.11V1.07a0.4,0.4,0,0,1,.8,0V6.18h5.11Z"/><path class="a" d="M15.34,14.18a11.81,11.81,0,0,1,8.27,11.27,0.71,0.71,0,0,1-.71.71H0.71A0.71,0.71,0,0,1,0,25.44,11.8,11.8,0,0,1,8.26,14.18a7.59,7.59,0,0,1-1.79-1.33,7.53,7.53,0,1,1,10.65,0h0a7.56,7.56,0,0,1-1.78,1.32h0Zm-3.54-.54h0a6.09,6.09,0,0,0,4.32-1.79h0a6.11,6.11,0,1,0-4.32,1.79h0Zm7.35,4.46a10.35,10.35,0,0,0-7.34-3h0A10.39,10.39,0,0,0,1.44,24.73H22.16A10.34,10.34,0,0,0,19.14,18.1Z"/></svg>