<svg xmlns="http://www.w3.org/2000/svg" viewBox="0 0 50 36.86"><defs><style>.a{fill:#fff;}.b{fill:none;stroke:#fff;stroke-linecap:round;stroke-linejoin:round;}</style></defs><title>atriumWeb ikoner</title><path class="a" d="M47,1a2,2,0,0,1,2,2V29.23a2,2,0,0,1-2,2H3a2,2,0,0,1-2-2V3A2,2,0,0,1,3,1H47m0-1H3A3,3,0,0,0,0,3V29.23a3,3,0,0,0,3,3H47a3,3,0,0,0,3-3V3a3,3,0,0,0-3-3h0Z"/><line class="b" x1="8.07" y1="36.36" x2="41.2" y2="36.36"/><path class="a" d="M25,6.08c-2.49,0-4.5,1.38-6.25,3.6l2.9,2.7c0.85-1.09,1.72-2,2.79-2A1.8,1.8,0,0,1,26.25,12c0,1.5-4,2.93-4,5.44v2.19h4.63v-1.5c0-1.64,4-2.52,4-6.07A5.73,5.73,0,0,0,25,6.08Z"/><circle class="a" cx="24.54" cy="23.44" r="2.7"/></svg>