<svg xmlns="http://www.w3.org/2000/svg" viewBox="0 0 50 50"><defs><style>.a{fill:#fff;}</style></defs><title>atriumWeb ikoner</title><path class="a" d="M25,1A24,24,0,1,1,12.54,45.52l-0.38-.23-0.43.13L1.5,48.5,4.59,38.27l0.13-.43-0.23-.38A24,24,0,0,1,25,1m0-1A25,25,0,0,0,3.63,38L0,50l12-3.63A25,25,0,1,0,25,0h0Z"/><path class="a" d="M20.58,17.89A1.75,1.75,0,0,1,20,19.23a2.08,2.08,0,0,1-1.49.54h0a2,2,0,0,1-1.46-.54,1.81,1.81,0,0,1-.55-1.35,1.78,1.78,0,0,1,.57-1.35A2.08,2.08,0,0,1,18.55,16a2,2,0,0,1,1.47.53A1.84,1.84,0,0,1,20.58,17.89Zm-0.23,3.37V32.19H16.71V21.26h3.64Zm13.09,4.66v6.26H29.81V26.34a3.19,3.19,0,0,0-.45-1.81A1.57,1.57,0,0,0,28,23.87a1.79,1.79,0,0,0-1.16.38,2.35,2.35,0,0,0-.7.94,2.66,2.66,0,0,0-.12.89v6.1H22.35q0-4.4,0-7.13t0-3.26V21.26H26v1.59h0a4.8,4.8,0,0,1,.45-0.62A4.7,4.7,0,0,1,27,21.66a2.87,2.87,0,0,1,1-.48A4.37,4.37,0,0,1,29.26,21a3.92,3.92,0,0,1,3,1.25A5.25,5.25,0,0,1,33.44,25.92Z"/></svg>