<svg xmlns="http://www.w3.org/2000/svg" viewBox="0 0 50 50"><defs><style>.a{fill:#000;}.b{fill:none;stroke:#000;stroke-miterlimit:10;}</style></defs><title>atriumWeb ikoner</title><path class="a" d="M25,1A24,24,0,1,1,12.54,45.52l-0.38-.23-0.43.13L1.5,48.5,4.59,38.27l0.13-.43-0.23-.38A24,24,0,0,1,25,1m0-1A25,25,0,0,0,3.63,38L0,50l12-3.63A25,25,0,1,0,25,0h0Z"/><path class="b" d="M29.59,36.29a4.82,4.82,0,0,1-.8.66,5.89,5.89,0,0,1-.9.53,3.9,3.9,0,0,1-2.35-.05,5.38,5.38,0,0,1-3-1.82,6.27,6.27,0,0,1-.5-0.7q-0.26-.41-0.37-0.62l-0.4-.76-0.35-.67a13.15,13.15,0,0,1-1.07-2.6,21.54,21.54,0,0,1-.74-4.9,21.54,21.54,0,0,1,.27-4.95,13.15,13.15,0,0,1,.82-2.69q0.06-.13.28-0.7l0.32-.8q0.09-.22.31-0.65a6.27,6.27,0,0,1,.43-0.74,5.38,5.38,0,0,1,2.84-2.1,3.9,3.9,0,0,1,2.33-.28,5.89,5.89,0,0,1,.94.44,4.82,4.82,0,0,1,.85.58,0.82,0.82,0,0,1,.2.24A2.49,2.49,0,0,1,28.52,15c0,0.21-.11.5-0.2,0.87s-0.17.72-.24,1-0.13.6-.19,0.88l-0.06.44a4.1,4.1,0,0,1-.12.59,1,1,0,0,1-.2.37,1.21,1.21,0,0,1-.8.26,7.1,7.1,0,0,1-1.2,0,8.78,8.78,0,0,0-1.18,0,1.11,1.11,0,0,0-.76.22,1,1,0,0,0-.17.29,3,3,0,0,0-.11.3c0,0.07,0,.2-0.08.39s-0.06.3-.06,0.32a14.42,14.42,0,0,0,.4,8.39l0.09,0.31c0.05,0.19.09,0.31,0.12,0.38a3,3,0,0,0,.14.29,1,1,0,0,0,.19.27,1.11,1.11,0,0,0,.77.14A8.78,8.78,0,0,0,26,30.6a7.1,7.1,0,0,1,1.2-.13,1.21,1.21,0,0,1,.82.18,1,1,0,0,1,.24.35,4.1,4.1,0,0,1,.17.58L28.56,32c0.08,0.27.17,0.56,0.27,0.86s0.21,0.63.34,1,0.22,0.65.29,0.85a2.49,2.49,0,0,1,.3,1.31A0.82,0.82,0,0,1,29.59,36.29Z"/></svg>