<svg xmlns="http://www.w3.org/2000/svg" viewBox="0 0 50 45.22"><defs><style>.a{fill:#fff;}.b{fill:none;stroke:#fff;stroke-linecap:round;stroke-linejoin:round;}</style></defs><title>atriumWeb ikoner</title><path class="a" d="M10.53,1H47.61A1.39,1.39,0,0,1,49,2.4V40a4.27,4.27,0,0,1-4.26,4.26H5.26A4.27,4.27,0,0,1,1,40V15.31a1.39,1.39,0,0,1,1.39-1.39H5.46V36.25a1.84,1.84,0,1,0,3.68,0V2.39A1.39,1.39,0,0,1,10.53,1h0m0-1A2.39,2.39,0,0,0,8.13,2.39V36.25a0.84,0.84,0,0,1-.84.84h0a0.84,0.84,0,0,1-.84-0.84V12.92H2.39A2.39,2.39,0,0,0,0,15.31V40a5.26,5.26,0,0,0,5.26,5.26H44.74A5.26,5.26,0,0,0,50,40V2.4A2.39,2.39,0,0,0,47.61,0H10.53Z"/><line class="b" x1="20.96" y1="9.69" x2="42.29" y2="9.7"/><line class="b" x1="15.62" y1="17.73" x2="42.29" y2="17.73"/><line class="b" x1="15.62" y1="25.77" x2="42.29" y2="25.77"/><line class="b" x1="15.62" y1="33.8" x2="42.29" y2="33.8"/></svg>