<svg xmlns="http://www.w3.org/2000/svg" viewBox="0 0 50 50"><defs><style>.a{fill:#000;}</style></defs><title>atriumWeb ikoner</title><path class="a" d="M25,1A24,24,0,1,1,12.54,45.52l-0.38-.23-0.43.13L1.49,48.5,4.58,38.27l0.13-.43-0.23-.38A24,24,0,0,1,25,1m0-1A25,25,0,0,0,3.62,38L0,50l12-3.63A25,25,0,1,0,25,0h0Z"/><path class="a" d="M33.25,19.78a7.19,7.19,0,0,1-1.72,1.77q0,0.15,0,.45a9.76,9.76,0,0,1-.4,2.76A10,10,0,0,1,29.9,27.4a10.39,10.39,0,0,1-2,2.24,8.73,8.73,0,0,1-2.74,1.55,10,10,0,0,1-3.43.58,9.53,9.53,0,0,1-5.27-1.54,7.33,7.33,0,0,0,.83,0,6.72,6.72,0,0,0,4.26-1.47,3.44,3.44,0,0,1-3.21-2.38,4.32,4.32,0,0,0,.65.05,3.55,3.55,0,0,0,.9-0.12,3.38,3.38,0,0,1-2-1.19A3.32,3.32,0,0,1,17.17,23v0a3.4,3.4,0,0,0,1.55.44,3.43,3.43,0,0,1-1.12-1.22,3.44,3.44,0,0,1,.05-3.37,9.73,9.73,0,0,0,3.13,2.53,9.56,9.56,0,0,0,3.95,1.06,3.81,3.81,0,0,1-.09-0.79,3.44,3.44,0,0,1,5.94-2.35,6.73,6.73,0,0,0,2.18-.83,3.33,3.33,0,0,1-1.51,1.89A6.83,6.83,0,0,0,33.25,19.78Z"/></svg>