<svg xmlns="http://www.w3.org/2000/svg" viewBox="0 0 41.02 26.75"><defs><style>.a{fill:#fff;fill-rule:evenodd;}</style></defs><title>atriumWeb ikoner</title><path class="a" d="M40.07,24.27l-11.93-9-7.35,5.56a0.46,0.46,0,0,1-.56,0l-7.36-5.56-11.93,9a1.85,1.85,0,0,0,.52,1h0a1.82,1.82,0,0,0,1.3.54H38.25a1.85,1.85,0,0,0,1.82-1.56h0Zm-12.21-10-7.35,5.56-7.35-5.56h0L0.92,5.06V2.77A1.85,1.85,0,0,1,2.77.92H38.25a1.84,1.84,0,0,1,1.3.54h0a1.85,1.85,0,0,1,.54,1.3V5.06L27.87,14.3h0Zm1,0.36L40.09,6.21V23.13L28.9,14.67h0Zm-28-8.46,11.19,8.46L0.92,23.13V6.21h0ZM2.77,0H38.25a2.76,2.76,0,0,1,2,.81h0a2.76,2.76,0,0,1,.81,2V24a2.77,2.77,0,0,1-2.77,2.77H2.77a2.77,2.77,0,0,1-1.95-.81h0A2.76,2.76,0,0,1,0,24V2.77A2.77,2.77,0,0,1,2.77,0Z"/></svg>