<svg xmlns="http://www.w3.org/2000/svg" viewBox="0 0 50 50"><defs><style>.a{fill:#000;}.b{fill:none;stroke:#000;stroke-linecap:round;stroke-miterlimit:10;}</style></defs><title>atriumWeb ikoner</title><path class="a" d="M43.76,1a5.25,5.25,0,1,1-4.7,7.59,5.19,5.19,0,0,1-.55-2.34A5.25,5.25,0,0,1,43.76,1m0-1A6.25,6.25,0,1,0,50,6.25,6.25,6.25,0,0,0,43.76,0h0Z"/><path class="a" d="M43.76,38.51a5.25,5.25,0,1,1-5.25,5.25,5.24,5.24,0,0,1,5.25-5.25m0-1A6.25,6.25,0,1,0,50,43.75a6.25,6.25,0,0,0-6.25-6.25h0Z"/><path class="a" d="M6.25,19.75A5.25,5.25,0,1,1,1,25a5.23,5.23,0,0,1,5.25-5.25m0-1a6.25,6.25,0,1,0,5.59,3.46,6.25,6.25,0,0,0-5.59-3.46h0Z"/><line class="b" x1="11.85" y1="27.79" x2="38.17" y2="40.96"/><line class="b" x1="11.85" y1="22.21" x2="38.17" y2="9.04"/></svg>